<?xml version="1.0" encoding="UTF-8" standalone="no"?>
<svg
   version="1.1"
   width="512"
   height="512"
   id="svg8"
   sodipodi:docname="csharp.svg"
   inkscape:version="1.4.3 (0d15f75042, 2025-12-25)"
   xmlns:inkscape="http://www.inkscape.org/namespaces/inkscape"
   xmlns:sodipodi="http://sodipodi.sourceforge.net/DTD/sodipodi-0.dtd"
   xmlns="http://www.w3.org/2000/svg"
   xmlns:svg="http://www.w3.org/2000/svg">
  <defs
     id="defs8" />
  <sodipodi:namedview
     id="namedview8"
     pagecolor="#505050"
     bordercolor="#eeeeee"
     borderopacity="1"
     inkscape:showpageshadow="0"
     inkscape:pageopacity="0"
     inkscape:pagecheckerboard="0"
     inkscape:deskcolor="#505050"
     inkscape:zoom="1.6542969"
     inkscape:cx="256"
     inkscape:cy="256"
     inkscape:window-width="1920"
     inkscape:window-height="1056"
     inkscape:window-x="0"
     inkscape:window-y="0"
     inkscape:window-maximized="1"
     inkscape:current-layer="svg8" />
  <path
     d="m 320.32539,32.327207 c 11.31959,6.65779 22.71542,13.178966 34.12595,19.67904 3.94835,2.250945 7.89625,4.502682 11.84387,6.754909 0.9749,0.556189 1.94981,1.112378 2.95425,1.685422 11.99286,6.846152 23.95965,13.737748 35.90396,20.668249 8.32063,4.824216 16.65451,9.616162 25.06156,14.288012 2.98738,1.661985 5.9687,3.334358 8.94848,5.009931 3.73085,2.0937 7.47266,4.16805 11.22727,6.21884 14.61868,8.25039 24.55792,16.34237 29.80793,32.54831 2.07098,8.79547 1.76477,17.67489 1.71986,26.66736 0.0131,3.25758 0.0131,3.25758 0.0265,6.58096 0.0226,5.91695 0.014,11.83346 -0.002,17.75042 -0.0127,6.21628 -9e-4,12.43252 0.007,18.6488 0.009,10.43565 -0.003,20.87112 -0.0267,31.30674 -0.0272,12.03453 -0.0184,24.06864 0.009,36.10317 0.0227,10.36546 0.0258,20.73079 0.0128,31.09626 -0.008,6.17646 -0.009,12.35272 0.008,18.52917 0.0172,6.88976 -0.007,13.7788 -0.0345,20.66853 0.0101,2.02555 0.0202,4.0511 0.0307,6.13803 -0.11281,15.13924 -2.09817,29.18389 -12.33901,40.96086 -12.2423,8.61083 -25.43864,15.9014 -38.42098,23.32331 -2.85942,1.64215 -5.71883,3.28431 -8.57801,4.92688 -2.94067,1.68871 -5.88235,3.37564 -8.82418,5.06231 -9.16881,5.25913 -18.32048,10.54798 -27.47435,15.83304 -3.61384,2.08471 -7.22774,4.16932 -10.8417,6.25382 -7.17725,4.14056 -14.35285,8.28397 -21.5272,12.42956 -8.95714,5.17524 -17.91984,10.34076 -26.8846,15.50277 -5.07719,2.92787 -10.14972,5.86356 -15.22077,8.80204 -4.26346,2.46794 -8.5314,4.92806 -12.80033,7.38653 -2.04654,1.18072 -4.09127,2.3646 -6.13404,3.55184 -2.84601,1.65342 -5.69925,3.29438 -8.55274,4.93486 -1.62621,0.94021 -3.25241,1.88041 -4.9279,2.84911 -8.06977,4.14385 -15.34342,6.26385 -24.40845,6.3852 -1.59131,0.0472 -3.18261,0.0945 -4.82214,0.14317 -14.35203,-2.00895 -27.33093,-11.02227 -39.74203,-18.05214 -1.81935,-1.02463 -3.6387,-2.04926 -5.51318,-3.10495 -13.89839,-7.85252 -27.70226,-15.86157 -41.47224,-23.93665 -12.8499,-7.5305 -25.76623,-14.93943 -38.70691,-22.31218 C 109.69785,435.02214 94.659837,426.39837 79.673631,417.68238 78.100576,416.77076 76.527522,415.85914 74.9068,414.9199 35.035937,391.66901 35.035937,391.66901 29.799238,373.63882 29.37064,368.77759 29.37064,368.77759 29.35372,363.6088 c -0.01421,-1.97096 -0.02842,-3.94192 -0.04306,-5.9726 0.0015,-2.1396 0.003,-4.27921 0.0046,-6.48365 -0.01,-2.2941 -0.02132,-4.5882 -0.03391,-6.88229 -0.02936,-6.21303 -0.03724,-12.4259 -0.03937,-18.63899 -0.0024,-3.88641 -0.0095,-7.77277 -0.01832,-11.65917 -0.0308,-13.57167 -0.04443,-27.14323 -0.04181,-40.71494 0.002,-12.62975 -0.03316,-25.25903 -0.08577,-37.88866 -0.04363,-10.86192 -0.06144,-21.72368 -0.05931,-32.58568 8.47e-4,-6.4792 -0.0085,-12.95797 -0.04391,-19.43708 -0.03237,-6.09618 -0.03244,-12.19154 -0.0083,-18.28775 0.0051,-3.28804 -0.02258,-6.57609 -0.05145,-9.86401 0.09995,-14.16275 1.926821,-23.05806 11.174192,-34.15491 12.453444,-10.51624 26.88565,-18.24765 41.024031,-26.23872 2.052956,-1.166156 4.10556,-2.332931 6.157835,-3.500285 4.256464,-2.420358 8.514405,-4.838082 12.773652,-7.253555 10.04678,-5.699157 20.07968,-11.422649 30.10994,-17.15083 0.96774,-0.552516 1.93548,-1.105031 2.93254,-1.674289 23.78434,-13.58397 47.43371,-27.397574 71.03956,-41.289013 2.73245,-1.603791 2.73245,-1.603791 5.52009,-3.239981 3.49208,-2.049835 6.9814,-4.10437 10.46751,-6.164342 1.57037,-0.921016 3.14074,-1.842031 4.75869,-2.790955 1.37696,-0.811224 2.75392,-1.622448 4.17261,-2.4582536 33.40178,-18.0299334 62.82244,6.2993826 91.26163,23.0483606 z"
     fill="#953dac"
     id="path1"
     style="stroke-width:1.66595" />
  <path
     d="m 474.60802,128.74409 c 8.05655,8.05655 7.06708,19.87279 7.13388,30.5506 -0.004,2.03753 -0.008,4.07506 -0.0125,6.17434 0.0128,3.25684 0.0128,3.25684 0.0258,6.57948 0.0222,5.93082 0.0233,11.86146 0.0191,17.79232 -0.002,4.96357 0.006,9.9271 0.0143,14.89066 0.0185,11.71714 0.0192,23.4342 0.009,35.15135 -0.0101,12.05905 0.0104,24.11778 0.0459,36.17677 0.0294,10.37953 0.0393,20.75895 0.0339,31.13851 -0.003,6.1877 10e-4,12.37518 0.0245,18.56284 0.025,6.90604 0.009,13.81143 -0.01,20.71749 0.0127,2.03079 0.0255,4.06157 0.0386,6.1539 -0.0934,15.15963 -2.06497,29.20401 -12.3205,40.99787 -12.2423,8.61083 -25.43864,15.9014 -38.42098,23.32331 -2.85942,1.64215 -5.71883,3.28431 -8.57801,4.92688 -2.94067,1.68871 -5.88235,3.37564 -8.82418,5.06231 -9.16881,5.25913 -18.32048,10.54798 -27.47435,15.83304 -3.61384,2.08471 -7.22774,4.16932 -10.8417,6.25382 -7.17725,4.14056 -14.35285,8.28397 -21.5272,12.42956 -8.95714,5.17524 -17.91984,10.34076 -26.8846,15.50277 -5.07719,2.92787 -10.14972,5.86356 -15.22077,8.80204 -4.26346,2.46794 -8.5314,4.92806 -12.80033,7.38653 -2.04654,1.18072 -4.09127,2.3646 -6.13404,3.55184 -2.84601,1.65342 -5.69925,3.29438 -8.55274,4.93486 -1.62621,0.94021 -3.25241,1.88041 -4.9279,2.84911 -8.06977,4.14385 -15.34342,6.26385 -24.40845,6.3852 -1.59131,0.0472 -3.18261,0.0945 -4.82214,0.14317 -14.35203,-2.00895 -27.33093,-11.02227 -39.74203,-18.05214 -1.81935,-1.02463 -3.6387,-2.04926 -5.51318,-3.10495 -13.89839,-7.85252 -27.70226,-15.86157 -41.47224,-23.93665 -12.8499,-7.5305 -25.76623,-14.93943 -38.70691,-22.31218 -15.06057,-8.5866 -30.098583,-17.21037 -45.084789,-25.92636 -1.573055,-0.91162 -3.146109,-1.82324 -4.766831,-2.76248 -33.185268,-19.35215 -33.185268,-19.35215 -40.109711,-29.61943 0,-1.09953 0,-2.19906 0,-3.3319 1.427023,-0.80089 1.427023,-0.80089 2.882875,-1.61796 40.349321,-22.31025 40.349321,-22.31025 79.782596,-46.16342 3.96396,-2.19714 3.96396,-2.19714 8.96181,-2.19714 2.51194,3.05858 2.51194,3.05858 5.20609,7.28854 23.72828,35.19529 58.16567,56.66515 99.54054,64.76382 42.93507,6.24613 81.6897,-5.81528 116.59702,-30.43613 14.46656,-11.02897 28.74503,-26.03254 35.21272,-43.28218 -1.22488,-0.70465 -2.44977,-1.4093 -3.71178,-2.13531 -4.62708,-2.66284 -9.25335,-5.32706 -13.87912,-7.99217 -1.98669,-1.14425 -3.97367,-2.28798 -5.96098,-3.43114 -2.88777,-1.66126 -5.77431,-3.32467 -8.66083,-4.98809 -1.87639,-1.07859 -3.75278,-2.15718 -5.68603,-3.26845 -6.3446,-3.71833 -12.56339,-7.6183 -18.74113,-11.60716 -3.54717,-2.12932 -3.54717,-2.12932 -8.3322,0.10331 -2.74011,2.76626 -2.74011,2.76626 -5.41433,6.1432 -11.98171,13.97865 -25.78414,24.44968 -44.56418,27.17581 -23.50109,1.71362 -43.14741,-1.15273 -61.76381,-16.97838 -14.16525,-13.30326 -24.24418,-30.1705 -25.48384,-49.99153 -0.5489,-20.34513 3.11214,-36.44674 15.61178,-52.97852 0.89336,-1.34005 1.78673,-2.6801 2.70717,-4.06076 15.12567,-16.31981 34.81107,-23.90437 56.64231,-24.78101 19.16473,0.21347 37.87499,8.07783 51.63796,21.41007 10.62694,11.50561 10.62694,11.50561 10.62694,15.76145 13.02289,-7.07436 26.0007,-14.22591 38.9416,-21.44911 1.7223,-0.95565 3.44461,-1.91129 5.21911,-2.89589 10.82923,-6.04767 21.42213,-12.39226 31.95973,-18.93311 8.38448,-5.12474 16.91931,-9.97593 25.4694,-14.81785 5.06581,-2.86919 10.1244,-5.75108 15.18288,-8.63317 0.99044,-0.56409 1.98088,-1.12818 3.00134,-1.70937 12.35189,-7.04397 24.60196,-14.25867 36.82529,-21.52283 z"
     fill="#822d98"
     id="path2"
     style="stroke-width:1.66595" />
  <path
     d="m 348.85967,139.1453 c 14.83163,12.13934 25.3235,25.35421 35.78702,41.24326 -5.06407,5.5633 -10.20646,8.96552 -16.80267,12.54669 -0.96526,0.52943 -1.93051,1.05886 -2.92502,1.60433 -3.06691,1.68007 -6.14191,3.34457 -9.2182,5.00741 -3.06299,1.66523 -6.12406,3.33383 -9.1825,5.00741 -2.78226,1.52101 -5.56997,3.03206 -8.35797,4.54252 -5.28516,2.9187 -5.28516,2.9187 -10.50492,6.64428 -4.64888,2.96422 -4.64888,2.96422 -9.64674,2.96422 -2.5705,-2.92843 -2.5705,-2.92843 -5.31021,-6.87205 -11.44235,-15.28044 -27.66262,-24.31529 -46.33425,-28.11291 -21.3595,-1.77477 -39.05916,2.84815 -56.64232,14.99355 -1.47749,0.96209 -2.95498,1.92418 -4.47724,2.91542 -14.07962,13.69908 -22.18178,30.10671 -22.96213,49.69868 -0.28847,23.19264 5.97177,41.24047 21.75171,58.57508 16.42082,15.45961 35.25007,19.44213 56.8831,19.10637 20.54527,-0.72687 36.94227,-10.90313 50.94164,-25.4578 2.78744,-3.18013 5.33052,-6.45865 7.81566,-9.87857 6.73086,2.49326 12.76943,5.69116 18.99574,9.25384 1.49981,0.85668 1.49981,0.85668 3.02993,1.73067 2.1058,1.20442 4.2101,2.41148 6.31297,3.62103 3.191,1.83463 6.38732,3.65968 9.58451,5.48348 9.20539,5.27212 18.2737,10.59822 27.04891,16.56189 -2.29046,6.61167 -5.33516,11.28315 -9.78745,16.65951 -1.1296,1.37441 -2.25919,2.74882 -3.42301,4.16487 -1.13818,1.37441 -2.27637,2.74882 -3.44904,4.16488 -1.07161,1.39803 -2.14322,2.79606 -3.2473,4.23646 -23.92335,28.66245 -62.06228,43.67291 -98.37568,47.40801 -39.77871,2.91063 -78.88202,-10.20031 -109.13928,-36.25395 -1.36797,-1.23053 -2.73594,-2.46105 -4.14536,-3.72887 -1.17898,-1.04154 -2.35797,-2.08308 -3.57268,-3.15619 -26.79411,-25.10296 -42.70518,-62.28318 -45.07828,-98.65551 -0.6305,-43.03177 13.1849,-82.25834 42.90392,-114.00535 53.83106,-53.994237 141.54536,-59.671982 201.52714,-12.01266 z"
     fill="#fdfcfd"
     id="path3"
     style="stroke-width:1.66595" />
  <path
     d="m 126.42437,331.99005 c 2.51194,3.05858 2.51194,3.05858 5.20609,7.28854 23.72828,35.19529 58.16567,56.66515 99.54054,64.76382 42.93507,6.24613 81.6897,-5.81528 116.59702,-30.43613 12.97334,-9.89057 22.28213,-21.93258 31.88082,-34.95242 1.66538,-2.2217 3.33103,-4.4432 4.99785,-6.66381 7.54889,2.75571 14.35807,6.49241 21.345,10.41219 1.91444,1.06826 1.91444,1.06826 3.86756,2.15809 14.86104,8.33701 29.55744,16.95876 44.25628,25.57739 6.80522,3.99005 13.63262,7.93559 20.49249,11.83085 -0.79439,7.14955 -4.86227,10.27471 -9.9957,14.99355 -3.25503,2.23827 -6.58665,4.36816 -9.97618,6.39699 -0.94092,0.56613 -1.88184,1.13226 -2.85128,1.71555 -10.17707,6.09194 -20.48084,11.96621 -30.79962,17.81382 -4.11602,2.34092 -8.23043,4.68467 -12.34495,7.02823 -1.03306,0.58795 -2.06611,1.17591 -3.13047,1.78169 -10.37827,5.90932 -20.72565,11.87175 -31.06707,17.84529 -1.76606,1.0198 -3.53213,2.0396 -5.35171,3.0903 -5.3662,3.09937 -10.73183,6.19974 -16.0974,9.3002 -12.71175,7.3434 -25.42744,14.67986 -38.14848,22.00714 -5.10967,2.94947 -10.21118,5.91263 -15.31162,8.87802 -3.14302,1.81806 -6.2862,3.63587 -9.42954,5.45339 -1.41803,0.82934 -2.83606,1.65868 -4.29706,2.51316 -10.11573,5.82956 -18.89793,9.92636 -30.79202,10.08559 -1.59131,0.0472 -3.18261,0.0945 -4.82214,0.14317 -14.35203,-2.00895 -27.33093,-11.02227 -39.74203,-18.05214 -1.81935,-1.02463 -3.6387,-2.04926 -5.51318,-3.10495 -13.89839,-7.85252 -27.70226,-15.86157 -41.47224,-23.93665 -12.8499,-7.5305 -25.76623,-14.93943 -38.70691,-22.31218 -15.06057,-8.5866 -30.098583,-17.21037 -45.084789,-25.92636 -1.573055,-0.91162 -3.146109,-1.82324 -4.766831,-2.76248 -33.185268,-19.35215 -33.185268,-19.35215 -40.109711,-29.61943 0,-1.09953 0,-2.19906 0,-3.3319 0.951349,-0.53393 1.902698,-1.06785 2.882875,-1.61796 40.349321,-22.31025 40.349321,-22.31025 79.782596,-46.16342 3.96396,-2.19714 3.96396,-2.19714 8.96181,-2.19714 z"
     fill="#68217a"
     id="path4"
     style="stroke-width:1.66595" />
  <path
     d="m 303.01512,198.71401 c 13.93948,13.4973 13.93948,13.4973 16.65951,21.65736 -0.79995,0.43299 -1.5999,0.86598 -2.42409,1.3121 -18.51794,10.04724 -36.82857,20.39845 -55.00159,31.05639 -12.61589,7.3934 -25.27194,14.71281 -37.96423,21.97404 -2.05239,1.17436 -4.10421,2.34975 -6.15539,3.52622 -2.87458,1.64832 -5.7516,3.29237 -8.6287,4.93628 -1.64741,0.94209 -3.29482,1.88418 -4.99215,2.85481 -4.86278,2.68863 -9.79128,5.19209 -14.77799,7.64198 -1.08138,-2.63553 -2.15599,-5.27383 -3.22778,-7.91326 -0.59916,-1.4689 -1.19832,-2.9378 -1.81563,-4.45121 -6.00548,-15.91816 -5.98201,-36.45656 0.46204,-52.19111 3.25913,-6.65597 6.77758,-12.8332 11.24517,-18.74194 1.34005,-2.01008 1.34005,-2.01008 2.70717,-4.06076 27.69026,-29.87633 72.03935,-32.15554 103.91366,-7.6009 z"
     fill="#953dac"
     id="path5"
     style="stroke-width:1.66595" />
  <path
     d="m 261.36636,258.68823 c 4.87298,2.35088 4.87298,2.35088 9.92412,5.33625 2.78156,1.62674 2.78156,1.62674 5.61933,3.28635 1.93416,1.15131 3.86801,2.30316 5.80154,3.45554 3.79338,2.2309 7.58731,4.46086 11.38182,6.68983 1.79882,1.06195 3.59763,2.1239 5.45095,3.21802 6.65041,3.8881 13.36841,7.64321 20.13051,11.33302 -4.65819,13.92501 -16.38554,23.55993 -29.09069,30.23196 -17.97685,8.89356 -37.3651,11.27632 -57.01813,6.6337 -16.08103,-5.78386 -31.01314,-15.66139 -40.50342,-30.20186 -0.59691,-2.21045 -1.15752,-4.43133 -1.66595,-6.6638 1.34327,-0.76384 2.68654,-1.52769 4.07051,-2.31468 5.0436,-2.86979 10.08574,-5.74211 15.12696,-8.61609 2.17081,-1.2369 4.34218,-2.47282 6.51413,-3.70771 2.10963,-1.19961 4.21852,-2.40054 6.32663,-3.60283 2.06154,-1.17572 4.12472,-2.34857 6.18955,-3.51849 5.49225,-3.13275 10.76162,-6.44642 15.96767,-10.02992 6.80393,-3.76208 8.45227,-3.43221 15.77447,-1.52929 z"
     fill="#68217a"
     id="path6"
     style="stroke-width:1.66595" />
  <path
     d="m 387.9786,207.04377 c 4.39811,0 8.79621,0 13.3276,0 -1.09953,6.59716 -2.19905,13.19432 -3.3319,19.9914 6.59716,0 13.19433,0 19.99141,0 0.54976,-6.59716 1.09952,-13.19433 1.66595,-19.9914 4.3981,0 8.79621,0 13.3276,0 -0.54976,6.59716 -1.09953,13.19432 -1.66595,19.9914 3.29858,0 6.59716,0 9.9957,0 0,3.84835 0,7.69669 0,11.66166 -4.39811,0 -8.79622,0 -13.3276,0 -1.09953,7.14692 -2.19906,14.29385 -3.3319,21.65735 3.84834,0 7.69669,0 11.66165,0 0,3.84835 0,7.69669 0,11.66166 -4.39811,0.54976 -8.79622,1.09952 -13.3276,1.66595 -1.09953,6.0474 -2.19906,12.0948 -3.3319,18.32545 -4.39811,0 -8.79622,0 -13.32761,0 1.09953,-6.59716 2.19906,-13.19433 3.3319,-19.9914 -6.59716,0 -13.19433,0 -19.9914,0 -0.24053,2.68009 -0.48105,5.36019 -0.72886,8.1215 -0.72885,8.12151 -0.72885,8.12151 -2.60304,11.8699 -3.84835,0 -7.6967,0 -11.66166,0 -0.23799,-14.27957 -0.23799,-14.27957 1.66595,-19.9914 -3.29858,0 -6.59716,0 -9.9957,0 0,-3.84835 0,-7.6967 0,-11.66166 4.39811,0 8.79622,0 13.3276,0 0.10094,-1.28421 0.20187,-2.56843 0.30586,-3.89155 0.13959,-1.67077 0.27918,-3.34154 0.423,-5.06293 0.13529,-1.66218 0.27058,-3.32435 0.40998,-5.0369 0.52711,-4.33407 0.52711,-4.33407 2.19306,-7.66597 -3.84834,0 -7.69669,0 -11.66165,0 0,-4.39811 0,-8.79622 0,-13.32761 4.39811,0 8.79622,0 13.3276,0 0.10094,-1.04369 0.20187,-2.08738 0.30586,-3.1627 0.13959,-1.36153 0.27918,-2.72305 0.423,-4.12583 0.13529,-1.35294 0.27059,-2.70587 0.40998,-4.0998 0.52712,-3.60522 0.52712,-3.60522 2.19307,-6.93712 z"
     fill="#fbf9fc"
     id="path7"
     style="stroke-width:1.66595" />
  <path
     d="m 394.6424,238.69683 c 6.59716,0 13.19433,0 19.9914,0 -0.54976,7.14692 -1.09952,14.29385 -1.66595,21.65735 -6.59716,0 -13.19432,0 -19.9914,0 0.54976,-7.14693 1.09952,-14.29385 1.66595,-21.65735 z"
     fill="#84309a"
     id="path8"
     style="stroke-width:1.66595" />
</svg>
