<?xml version="1.0" encoding="UTF-8" standalone="no"?>
<svg
   width="500"
   height="500"
   viewBox="0 0 500 500"
   fill="none"
   version="1.1"
   id="svg59"
   sodipodi:docname="webst.svg"
   inkscape:version="1.4.3 (0d15f75042, 2025-12-25)"
   xmlns:inkscape="http://www.inkscape.org/namespaces/inkscape"
   xmlns:sodipodi="http://sodipodi.sourceforge.net/DTD/sodipodi-0.dtd"
   xmlns="http://www.w3.org/2000/svg"
   xmlns:svg="http://www.w3.org/2000/svg">
  <sodipodi:namedview
     id="namedview59"
     pagecolor="#505050"
     bordercolor="#eeeeee"
     borderopacity="1"
     inkscape:showpageshadow="0"
     inkscape:pageopacity="0"
     inkscape:pagecheckerboard="0"
     inkscape:deskcolor="#505050"
     inkscape:zoom="1.694"
     inkscape:cx="250"
     inkscape:cy="250"
     inkscape:window-width="1920"
     inkscape:window-height="1056"
     inkscape:window-x="0"
     inkscape:window-y="0"
     inkscape:window-maximized="1"
     inkscape:current-layer="svg59" />
  <g
     clip-path="url(#clip0_2751_124)"
     id="g21"
     transform="matrix(1.6690312,0,0,1.6690312,-167.25744,-172.94537)">
    <path
       fill-rule="evenodd"
       clip-rule="evenodd"
       d="m 342.559,353.12 56.17,-173.233 c 4.407,-13.582 -3.027,-28.199 -16.581,-32.608 -13.554,-4.41 -28.14,3.033 -32.541,16.615 L 293.438,337.12 c -4.407,13.582 3.026,28.2 16.58,32.609 13.554,4.416 28.141,-3.027 32.541,-16.609 z"
       fill="url(#paint0_linear_2751_124)"
       id="path2"
       style="fill:url(#paint0_linear_2751_124)" />
    <path
       fill-rule="evenodd"
       clip-rule="evenodd"
       d="m 342.559,353.12 56.17,-173.233 c 4.407,-13.582 -3.027,-28.199 -16.581,-32.608 -13.554,-4.41 -28.14,3.033 -32.541,16.615 L 293.438,337.12 c -4.407,13.582 3.026,28.2 16.58,32.609 13.554,4.416 28.141,-3.027 32.541,-16.609 z"
       fill="url(#paint1_linear_2751_124)"
       id="path3"
       style="fill:url(#paint1_linear_2751_124)" />
    <path
       fill-rule="evenodd"
       clip-rule="evenodd"
       d="m 342.559,353.12 56.17,-173.233 c 4.407,-13.582 -3.027,-28.199 -16.581,-32.608 -13.554,-4.41 -28.14,3.033 -32.541,16.615 L 293.438,337.12 c -4.407,13.582 3.026,28.2 16.58,32.609 13.554,4.416 28.141,-3.027 32.541,-16.609 z"
       fill="url(#paint2_linear_2751_124)"
       fill-opacity="0.8"
       id="path4"
       style="fill:url(#paint2_linear_2751_124)" />
    <path
       fill-rule="evenodd"
       clip-rule="evenodd"
       d="m 342.559,353.12 56.17,-173.233 c 4.407,-13.582 -3.027,-28.199 -16.581,-32.608 -13.554,-4.41 -28.14,3.033 -32.541,16.615 L 293.438,337.12 c -4.407,13.582 3.026,28.2 16.58,32.609 13.554,4.416 28.141,-3.027 32.541,-16.609 z"
       fill="url(#paint3_radial_2751_124)"
       id="path5"
       style="fill:url(#paint3_radial_2751_124)" />
    <path
       fill-rule="evenodd"
       clip-rule="evenodd"
       d="m 342.559,353.12 56.17,-173.233 c 4.407,-13.582 -3.027,-28.199 -16.581,-32.608 -13.554,-4.41 -28.14,3.033 -32.541,16.615 L 293.438,337.12 c -4.407,13.582 3.026,28.2 16.58,32.609 13.554,4.416 28.141,-3.027 32.541,-16.609 z"
       fill="url(#paint4_radial_2751_124)"
       id="path6"
       style="fill:url(#paint4_radial_2751_124)" />
    <path
       fill-rule="evenodd"
       clip-rule="evenodd"
       d="m 342.559,353.12 56.17,-173.233 c 4.407,-13.582 -3.027,-28.199 -16.581,-32.608 -13.554,-4.41 -28.14,3.033 -32.541,16.615 L 293.438,337.12 c -4.407,13.582 3.026,28.2 16.58,32.609 13.554,4.416 28.141,-3.027 32.541,-16.609 z"
       fill="url(#paint5_radial_2751_124)"
       id="path7"
       style="fill:url(#paint5_radial_2751_124)" />
    <path
       fill-rule="evenodd"
       clip-rule="evenodd"
       d="m 249.993,250.445 c 6.375,0 11.075,3.74 15.083,8.432 4.453,5.222 8.01,11.695 11.031,18.568 13.579,30.853 16.123,69.45 16.123,69.45 0.974,14.251 13.312,25.022 27.532,24.046 14.221,-0.976 24.97,-13.347 23.996,-27.59 0,0 -3.414,-48.209 -20.393,-86.793 -14.56,-33.088 -39.216,-57.873 -73.366,-57.873 -34.149,0 -58.805,24.785 -73.365,57.873 -16.987,38.584 -20.393,86.793 -20.393,86.793 -0.974,14.25 9.775,26.614 23.995,27.59 14.221,0.976 26.559,-9.795 27.533,-24.046 0,0 2.543,-38.591 16.123,-69.45 3.021,-6.867 6.577,-13.346 11.03,-18.568 4.002,-4.692 8.702,-8.432 15.071,-8.432 z"
       fill="#e63cfe"
       id="path8" />
    <path
       fill-rule="evenodd"
       clip-rule="evenodd"
       d="m 249.993,250.445 c 6.375,0 11.075,3.74 15.083,8.432 4.453,5.222 8.01,11.695 11.031,18.568 13.579,30.853 16.123,69.45 16.123,69.45 0.974,14.251 13.312,25.022 27.532,24.046 14.221,-0.976 24.97,-13.347 23.996,-27.59 0,0 -3.414,-48.209 -20.393,-86.793 -14.56,-33.088 -39.216,-57.873 -73.366,-57.873 -34.149,0 -58.805,24.785 -73.365,57.873 -16.987,38.584 -20.393,86.793 -20.393,86.793 -0.974,14.25 9.775,26.614 23.995,27.59 14.221,0.976 26.559,-9.795 27.533,-24.046 0,0 2.543,-38.591 16.123,-69.45 3.021,-6.867 6.577,-13.346 11.03,-18.568 4.002,-4.692 8.702,-8.432 15.071,-8.432 z"
       fill="url(#paint6_radial_2751_124)"
       id="path9"
       style="fill:url(#paint6_radial_2751_124)" />
    <path
       fill-rule="evenodd"
       clip-rule="evenodd"
       d="m 249.993,250.445 c 6.375,0 11.075,3.74 15.083,8.432 4.453,5.222 8.01,11.695 11.031,18.568 13.579,30.853 16.123,69.45 16.123,69.45 0.974,14.251 13.312,25.022 27.532,24.046 14.221,-0.976 24.97,-13.347 23.996,-27.59 0,0 -3.414,-48.209 -20.393,-86.793 -14.56,-33.088 -39.216,-57.873 -73.366,-57.873 -34.149,0 -58.805,24.785 -73.365,57.873 -16.987,38.584 -20.393,86.793 -20.393,86.793 -0.974,14.25 9.775,26.614 23.995,27.59 14.221,0.976 26.559,-9.795 27.533,-24.046 0,0 2.543,-38.591 16.123,-69.45 3.021,-6.867 6.577,-13.346 11.03,-18.568 4.002,-4.692 8.702,-8.432 15.071,-8.432 z"
       fill="url(#paint7_radial_2751_124)"
       id="path10"
       style="fill:url(#paint7_radial_2751_124)" />
    <path
       fill-rule="evenodd"
       clip-rule="evenodd"
       d="m 249.993,250.445 c 6.375,0 11.075,3.74 15.083,8.432 4.453,5.222 8.01,11.695 11.031,18.568 13.579,30.853 16.123,69.45 16.123,69.45 0.974,14.251 13.312,25.022 27.532,24.046 14.221,-0.976 24.97,-13.347 23.996,-27.59 0,0 -3.414,-48.209 -20.393,-86.793 -14.56,-33.088 -39.216,-57.873 -73.366,-57.873 -34.149,0 -58.805,24.785 -73.365,57.873 -16.987,38.584 -20.393,86.793 -20.393,86.793 -0.974,14.25 9.775,26.614 23.995,27.59 14.221,0.976 26.559,-9.795 27.533,-24.046 0,0 2.543,-38.591 16.123,-69.45 3.021,-6.867 6.577,-13.346 11.03,-18.568 4.002,-4.692 8.702,-8.432 15.071,-8.432 z"
       fill="url(#paint8_radial_2751_124)"
       id="path11"
       style="fill:url(#paint8_radial_2751_124)" />
    <path
       fill-rule="evenodd"
       clip-rule="evenodd"
       d="m 249.993,250.445 c 6.375,0 11.075,3.74 15.083,8.432 4.453,5.222 8.01,11.695 11.031,18.568 13.579,30.853 16.123,69.45 16.123,69.45 0.974,14.251 13.312,25.022 27.532,24.046 14.221,-0.976 24.97,-13.347 23.996,-27.59 0,0 -3.414,-48.209 -20.393,-86.793 -14.56,-33.088 -39.216,-57.873 -73.366,-57.873 -34.149,0 -58.805,24.785 -73.365,57.873 -16.987,38.584 -20.393,86.793 -20.393,86.793 -0.974,14.25 9.775,26.614 23.995,27.59 14.221,0.976 26.559,-9.795 27.533,-24.046 0,0 2.543,-38.591 16.123,-69.45 3.021,-6.867 6.577,-13.346 11.03,-18.568 4.002,-4.692 8.702,-8.432 15.071,-8.432 z"
       fill="url(#paint9_radial_2751_124)"
       id="path12"
       style="fill:url(#paint9_radial_2751_124)" />
    <path
       fill-rule="evenodd"
       clip-rule="evenodd"
       d="m 249.993,250.445 c 6.375,0 11.075,3.74 15.083,8.432 4.453,5.222 8.01,11.695 11.031,18.568 13.579,30.853 16.123,69.45 16.123,69.45 0.974,14.251 13.312,25.022 27.532,24.046 14.221,-0.976 24.97,-13.347 23.996,-27.59 0,0 -3.414,-48.209 -20.393,-86.793 -14.56,-33.088 -39.216,-57.873 -73.366,-57.873 -34.149,0 -58.805,24.785 -73.365,57.873 -16.987,38.584 -20.393,86.793 -20.393,86.793 -0.974,14.25 9.775,26.614 23.995,27.59 14.221,0.976 26.559,-9.795 27.533,-24.046 0,0 2.543,-38.591 16.123,-69.45 3.021,-6.867 6.577,-13.346 11.03,-18.568 4.002,-4.692 8.702,-8.432 15.071,-8.432 z"
       fill="url(#paint10_radial_2751_124)"
       id="path13"
       style="fill:url(#paint10_radial_2751_124)" />
    <path
       fill-rule="evenodd"
       clip-rule="evenodd"
       d="m 249.993,250.445 c 6.375,0 11.075,3.74 15.083,8.432 4.453,5.222 8.01,11.695 11.031,18.568 13.579,30.853 16.123,69.45 16.123,69.45 0.974,14.251 13.312,25.022 27.532,24.046 14.221,-0.976 24.97,-13.347 23.996,-27.59 0,0 -3.414,-48.209 -20.393,-86.793 -14.56,-33.088 -39.216,-57.873 -73.366,-57.873 -34.149,0 -58.805,24.785 -73.365,57.873 -16.987,38.584 -20.393,86.793 -20.393,86.793 -0.974,14.25 9.775,26.614 23.995,27.59 14.221,0.976 26.559,-9.795 27.533,-24.046 0,0 2.543,-38.591 16.123,-69.45 3.021,-6.867 6.577,-13.346 11.03,-18.568 4.002,-4.692 8.702,-8.432 15.071,-8.432 z"
       fill="url(#paint11_radial_2751_124)"
       id="path14"
       style="fill:url(#paint11_radial_2751_124)" />
    <path
       fill-rule="evenodd"
       clip-rule="evenodd"
       d="m 249.993,250.445 c 6.375,0 11.075,3.74 15.083,8.432 4.453,5.222 8.01,11.695 11.031,18.568 13.579,30.853 16.123,69.45 16.123,69.45 0.974,14.251 13.312,25.022 27.532,24.046 14.221,-0.976 24.97,-13.347 23.996,-27.59 0,0 -3.414,-48.209 -20.393,-86.793 -14.56,-33.088 -39.216,-57.873 -73.366,-57.873 -34.149,0 -58.805,24.785 -73.365,57.873 -16.987,38.584 -20.393,86.793 -20.393,86.793 -0.974,14.25 9.775,26.614 23.995,27.59 14.221,0.976 26.559,-9.795 27.533,-24.046 0,0 2.543,-38.591 16.123,-69.45 3.021,-6.867 6.577,-13.346 11.03,-18.568 4.002,-4.692 8.702,-8.432 15.071,-8.432 z"
       fill="url(#paint12_radial_2751_124)"
       id="path15"
       style="fill:url(#paint12_radial_2751_124)" />
    <path
       fill-rule="evenodd"
       clip-rule="evenodd"
       d="m 249.993,250.445 c 6.375,0 11.075,3.74 15.083,8.432 4.453,5.222 8.01,11.695 11.031,18.568 13.579,30.853 16.123,69.45 16.123,69.45 0.974,14.251 13.312,25.022 27.532,24.046 14.221,-0.976 24.97,-13.347 23.996,-27.59 0,0 -3.414,-48.209 -20.393,-86.793 -14.56,-33.088 -39.216,-57.873 -73.366,-57.873 -34.149,0 -58.805,24.785 -73.365,57.873 -16.987,38.584 -20.393,86.793 -20.393,86.793 -0.974,14.25 9.775,26.614 23.995,27.59 14.221,0.976 26.559,-9.795 27.533,-24.046 0,0 2.543,-38.591 16.123,-69.45 3.021,-6.867 6.577,-13.346 11.03,-18.568 4.002,-4.692 8.702,-8.432 15.071,-8.432 z"
       fill="url(#paint13_radial_2751_124)"
       id="path16"
       style="fill:url(#paint13_radial_2751_124)" />
    <path
       fill-rule="evenodd"
       clip-rule="evenodd"
       d="m 206.561,337.12 -56.17,-173.232 c -4.4,-13.582 -18.98,-21.032 -32.54,-16.616 -13.554,4.416 -20.9881,19.027 -16.581,32.609 l 56.17,173.233 c 4.406,13.582 18.987,21.032 32.54,16.615 13.554,-4.416 20.988,-19.026 16.581,-32.609 z"
       fill="url(#paint14_linear_2751_124)"
       id="path17"
       style="fill:url(#paint14_linear_2751_124)" />
    <path
       fill-rule="evenodd"
       clip-rule="evenodd"
       d="m 206.561,337.12 -56.17,-173.232 c -4.4,-13.582 -18.98,-21.032 -32.54,-16.616 -13.554,4.416 -20.9881,19.027 -16.581,32.609 l 56.17,173.233 c 4.406,13.582 18.987,21.032 32.54,16.615 13.554,-4.416 20.988,-19.026 16.581,-32.609 z"
       fill="url(#paint15_radial_2751_124)"
       id="path18"
       style="fill:url(#paint15_radial_2751_124)" />
    <path
       fill-rule="evenodd"
       clip-rule="evenodd"
       d="m 206.561,337.12 -56.17,-173.232 c -4.4,-13.582 -18.98,-21.032 -32.54,-16.616 -13.554,4.416 -20.9881,19.027 -16.581,32.609 l 56.17,173.233 c 4.406,13.582 18.987,21.032 32.54,16.615 13.554,-4.416 20.988,-19.026 16.581,-32.609 z"
       fill="url(#paint16_linear_2751_124)"
       id="path19"
       style="fill:url(#paint16_linear_2751_124)" />
    <path
       fill-rule="evenodd"
       clip-rule="evenodd"
       d="m 206.561,337.12 -56.17,-173.232 c -4.4,-13.582 -18.98,-21.032 -32.54,-16.616 -13.554,4.416 -20.9881,19.027 -16.581,32.609 l 56.17,173.233 c 4.406,13.582 18.987,21.032 32.54,16.615 13.554,-4.416 20.988,-19.026 16.581,-32.609 z"
       fill="url(#paint17_radial_2751_124)"
       id="path20"
       style="fill:url(#paint17_radial_2751_124)" />
    <path
       fill-rule="evenodd"
       clip-rule="evenodd"
       d="m 206.561,337.12 -56.17,-173.232 c -4.4,-13.582 -18.98,-21.032 -32.54,-16.616 -13.554,4.416 -20.9881,19.027 -16.581,32.609 l 56.17,173.233 c 4.406,13.582 18.987,21.032 32.54,16.615 13.554,-4.416 20.988,-19.026 16.581,-32.609 z"
       fill="url(#paint18_radial_2751_124)"
       id="path21"
       style="fill:url(#paint18_radial_2751_124)" />
  </g>
  <defs
     id="defs59">
    <linearGradient
       id="paint0_linear_2751_124"
       x1="428.772"
       y1="89.2529"
       x2="344.662"
       y2="361.232"
       gradientUnits="userSpaceOnUse">
      <stop
         stop-color="#4A4EFA"
         id="stop21" />
      <stop
         offset="0.548576"
         stop-color="#E63CFE"
         id="stop22" />
    </linearGradient>
    <linearGradient
       id="paint1_linear_2751_124"
       x1="323.131"
       y1="246.04"
       x2="370.78"
       y2="261.464"
       gradientUnits="userSpaceOnUse">
      <stop
         offset="0.160046"
         stop-color="#4A4EFA"
         id="stop23" />
      <stop
         offset="0.946031"
         stop-color="#4A4EFA"
         stop-opacity="0"
         id="stop24" />
    </linearGradient>
    <linearGradient
       id="paint2_linear_2751_124"
       x1="330.352"
       y1="223.171"
       x2="360.291"
       y2="232.747"
       gradientUnits="userSpaceOnUse">
      <stop
         stop-color="#39FBBB"
         id="stop25" />
      <stop
         offset="1"
         stop-color="#39FBBB"
         stop-opacity="0"
         id="stop26" />
    </linearGradient>
    <radialGradient
       id="paint3_radial_2751_124"
       cx="0"
       cy="0"
       r="1"
       gradientUnits="userSpaceOnUse"
       gradientTransform="matrix(68.031514,-140.51083,140.51083,68.031514,319.289,286.52)">
      <stop
         offset="0.832168"
         stop-color="#4A4EFA"
         stop-opacity="0"
         id="stop27" />
      <stop
         offset="1"
         stop-color="#4A4EFA"
         stop-opacity="0.75"
         id="stop28" />
    </radialGradient>
    <radialGradient
       id="paint4_radial_2751_124"
       cx="0"
       cy="0"
       r="1"
       gradientUnits="userSpaceOnUse"
       gradientTransform="matrix(34.8051,0,0,74.4347,316.262,276.215)">
      <stop
         offset="0.169047"
         stop-color="#11417A"
         id="stop29" />
      <stop
         offset="0.926198"
         stop-color="#4069D4"
         stop-opacity="0"
         id="stop30" />
    </radialGradient>
    <radialGradient
       id="paint5_radial_2751_124"
       cx="0"
       cy="0"
       r="1"
       gradientUnits="userSpaceOnUse"
       gradientTransform="matrix(0,-115.122,55.1736,0,356.549,371.002)">
      <stop
         offset="0.34895"
         stop-color="#E63CFE"
         id="stop31" />
      <stop
         offset="1"
         stop-color="#E63CFE"
         stop-opacity="0"
         id="stop32" />
    </radialGradient>
    <radialGradient
       id="paint6_radial_2751_124"
       cx="0"
       cy="0"
       r="1"
       gradientUnits="userSpaceOnUse"
       gradientTransform="matrix(8.7538061,-118.28553,105.02978,7.7728047,241.246,289.545)">
      <stop
         stop-color="#39FBBB"
         stop-opacity="0.5"
         id="stop33" />
      <stop
         offset="0.688731"
         stop-color="#39FBBB"
         id="stop34" />
      <stop
         offset="1"
         stop-color="#39FBBB"
         stop-opacity="0"
         id="stop35" />
    </radialGradient>
    <radialGradient
       id="paint7_radial_2751_124"
       cx="0"
       cy="0"
       r="1"
       gradientUnits="userSpaceOnUse"
       gradientTransform="matrix(-153.3207,-239.47377,58.260216,-37.300524,410.239,356.324)">
      <stop
         stop-color="#E63CFE"
         id="stop36" />
      <stop
         offset="1"
         stop-color="#E63CFE"
         stop-opacity="0"
         id="stop37" />
    </radialGradient>
    <radialGradient
       id="paint8_radial_2751_124"
       cx="0"
       cy="0"
       r="1"
       gradientUnits="userSpaceOnUse"
       gradientTransform="matrix(11.107615,-127.46795,109.64948,9.5549053,245.959,326.153)">
      <stop
         offset="0.556793"
         stop-color="#4A4EFA"
         id="stop38" />
      <stop
         offset="0.934777"
         stop-color="#4A4EFA"
         stop-opacity="0"
         id="stop39" />
    </radialGradient>
    <radialGradient
       id="paint9_radial_2751_124"
       cx="0"
       cy="0"
       r="1"
       gradientUnits="userSpaceOnUse"
       gradientTransform="matrix(48.676231,-124.44168,74.26334,29.048625,211.263,364.879)">
      <stop
         offset="0.61345"
         stop-color="#E63CFE"
         id="stop40" />
      <stop
         offset="1"
         stop-color="#E63CFE"
         stop-opacity="0"
         id="stop41" />
    </radialGradient>
    <radialGradient
       id="paint10_radial_2751_124"
       cx="0"
       cy="0"
       r="1"
       gradientUnits="userSpaceOnUse"
       gradientTransform="matrix(-165.55155,10.900154,-27.555492,-418.51283,340.551,274.388)">
      <stop
         offset="0.813918"
         stop-color="#4A98D0"
         stop-opacity="0"
         id="stop42" />
      <stop
         offset="0.972647"
         stop-color="#11417A"
         id="stop43" />
    </radialGradient>
    <radialGradient
       id="paint11_radial_2751_124"
       cx="0"
       cy="0"
       r="1"
       gradientUnits="userSpaceOnUse"
       gradientTransform="matrix(0,-118.906,98.6593,0,201.298,371.002)">
      <stop
         offset="0.457769"
         stop-color="#FFAE3C"
         id="stop44" />
      <stop
         offset="1"
         stop-color="#FFAE3C"
         stop-opacity="0"
         id="stop45" />
    </radialGradient>
    <radialGradient
       id="paint12_radial_2751_124"
       cx="0"
       cy="0"
       r="1"
       gradientUnits="userSpaceOnUse"
       gradientTransform="matrix(0,-107.177,107.177,0,345.484,371.002)">
      <stop
         offset="0.191715"
         stop-color="#E63CFE"
         id="stop46" />
      <stop
         offset="1"
         stop-color="#E63CFE"
         stop-opacity="0"
         id="stop47" />
    </radialGradient>
    <radialGradient
       id="paint13_radial_2751_124"
       cx="0"
       cy="0"
       r="1"
       gradientUnits="userSpaceOnUse"
       gradientTransform="matrix(0,-80.6503,38.3105,0,282.606,371.002)">
      <stop
         offset="0.173611"
         stop-color="#FFAE3C"
         id="stop48" />
      <stop
         offset="1"
         stop-color="#FFAE3C"
         stop-opacity="0"
         id="stop49" />
    </radialGradient>
    <linearGradient
       id="paint14_linear_2751_124"
       x1="91.1746"
       y1="156.812"
       x2="163.696"
       y2="382.437"
       gradientUnits="userSpaceOnUse">
      <stop
         offset="0.169527"
         stop-color="#E63CFE"
         id="stop50" />
      <stop
         offset="0.708644"
         stop-color="#FFAE3C"
         id="stop51" />
    </linearGradient>
    <radialGradient
       id="paint15_radial_2751_124"
       cx="0"
       cy="0"
       r="1"
       gradientUnits="userSpaceOnUse"
       gradientTransform="matrix(-34.220514,11.755016,-57.400533,-167.10107,150.543,214.769)">
      <stop
         offset="0.120383"
         stop-color="#4A4EFA"
         id="stop52" />
      <stop
         offset="1"
         stop-color="#4A4EFA"
         stop-opacity="0"
         id="stop53" />
    </radialGradient>
    <linearGradient
       id="paint16_linear_2751_124"
       x1="182.366"
       y1="262.266"
       x2="172.21"
       y2="265.591"
       gradientUnits="userSpaceOnUse">
      <stop
         stop-color="#E63CFE"
         stop-opacity="0.33"
         id="stop54" />
      <stop
         offset="1"
         stop-color="#E63CFE"
         stop-opacity="0"
         id="stop55" />
    </linearGradient>
    <radialGradient
       id="paint17_radial_2751_124"
       cx="0"
       cy="0"
       r="1"
       gradientUnits="userSpaceOnUse"
       gradientTransform="matrix(0,-116.251,126.996,0,207.831,371.002)">
      <stop
         offset="0.465389"
         stop-color="#FFAE3C"
         id="stop56" />
      <stop
         offset="0.92565"
         stop-color="#FFAE3C"
         stop-opacity="0"
         id="stop57" />
    </radialGradient>
    <radialGradient
       id="paint18_radial_2751_124"
       cx="0"
       cy="0"
       r="1"
       gradientUnits="userSpaceOnUse"
       gradientTransform="matrix(0,-254.362,254.362,0,207.831,371.002)">
      <stop
         offset="0.843756"
         stop-color="#E63CFE"
         stop-opacity="0"
         id="stop58" />
      <stop
         offset="1"
         stop-color="#E63CFE"
         id="stop59" />
    </radialGradient>
    <clipPath
       id="clip0_2751_124">
      <rect
         width="300"
         height="226.071"
         fill="white"
         transform="translate(100 146)"
         id="rect59" />
    </clipPath>
  </defs>
</svg>
